<?xml version="1.0" encoding="UTF-8" standalone="no"?>
<!DOCTYPE svg PUBLIC "-//W3C//DTD SVG 1.1//EN"
 "http://www.w3.org/Graphics/SVG/1.1/DTD/svg11.dtd">
<!-- Generated by graphviz version 2.40.1 (20161225.0304)
 -->
<!-- Title: models_diagram Pages: 1 -->
<svg width="1327pt" height="249pt"
 viewBox="0.00 0.00 1327.08 249.00" xmlns="http://www.w3.org/2000/svg" xmlns:xlink="http://www.w3.org/1999/xlink">
<g id="graph0" class="graph" transform="scale(1 1) rotate(0) translate(4 245)">
<title>models_diagram</title>
<polygon fill="transparent" stroke="transparent" points="-4,4 -4,-245 1323.0845,-245 1323.0845,4 -4,4"/>
<!-- _diagram_info -->
<g id="node1" class="node">
<title>_diagram_info</title>
<text text-anchor="start" x="8" y="-142.6" font-family="Times,serif" font-size="13.00" fill="#000000">Models diagram</text>
<text text-anchor="start" x="8" y="-129.6" font-family="Times,serif" font-size="13.00" fill="#000000">Date: Oct 11 2017 &#45; 21:19</text>
<text text-anchor="start" x="8" y="-116.6" font-family="Times,serif" font-size="13.00" fill="#000000">Migration version: 20171011231507</text>
<text text-anchor="start" x="8" y="-103.6" font-family="Times,serif" font-size="13.00" fill="#000000">Generated by RailRoady 1.5.3</text>
<text text-anchor="start" x="8" y="-90.6" font-family="Times,serif" font-size="13.00" fill="#000000">http://railroady.prestonlee.com</text>
</g>
<!-- AdminUser -->
<g id="node2" class="node">
<title>AdminUser</title>
<path fill="none" stroke="#000000" d="M236.8149,-14.5C236.8149,-14.5 532.0845,-14.5 532.0845,-14.5 538.0845,-14.5 544.0845,-20.5 544.0845,-26.5 544.0845,-26.5 544.0845,-214.5 544.0845,-214.5 544.0845,-220.5 538.0845,-226.5 532.0845,-226.5 532.0845,-226.5 236.8149,-226.5 236.8149,-226.5 230.8149,-226.5 224.8149,-220.5 224.8149,-214.5 224.8149,-214.5 224.8149,-26.5 224.8149,-26.5 224.8149,-20.5 230.8149,-14.5 236.8149,-14.5"/>
<text text-anchor="middle" x="384.4497" y="-211.3" font-family="Times,serif" font-size="14.00" fill="#000000">AdminUser</text>
<polyline fill="none" stroke="#000000" points="224.8149,-204.5 544.0845,-204.5 "/>
<text text-anchor="start" x="232.8149" y="-189.3" font-family="Times,serif" font-size="14.00" fill="#000000">updated_at :timestamp without time zone</text>
<text text-anchor="start" x="232.8149" y="-175.3" font-family="Times,serif" font-size="14.00" fill="#000000">email :character varying</text>
<text text-anchor="start" x="232.8149" y="-161.3" font-family="Times,serif" font-size="14.00" fill="#000000">encrypted_password :character varying</text>
<text text-anchor="start" x="232.8149" y="-147.3" font-family="Times,serif" font-size="14.00" fill="#000000">reset_password_token :character varying</text>
<text text-anchor="start" x="232.8149" y="-133.3" font-family="Times,serif" font-size="14.00" fill="#000000">reset_password_sent_at :timestamp without time zone</text>
<text text-anchor="start" x="232.8149" y="-119.3" font-family="Times,serif" font-size="14.00" fill="#000000">remember_created_at :timestamp without time zone</text>
<text text-anchor="start" x="232.8149" y="-105.3" font-family="Times,serif" font-size="14.00" fill="#000000">sign_in_count :integer</text>
<text text-anchor="start" x="232.8149" y="-91.3" font-family="Times,serif" font-size="14.00" fill="#000000">current_sign_in_at :timestamp without time zone</text>
<text text-anchor="start" x="232.8149" y="-77.3" font-family="Times,serif" font-size="14.00" fill="#000000">last_sign_in_at :timestamp without time zone</text>
<text text-anchor="start" x="232.8149" y="-63.3" font-family="Times,serif" font-size="14.00" fill="#000000">current_sign_in_ip :inet</text>
<text text-anchor="start" x="232.8149" y="-49.3" font-family="Times,serif" font-size="14.00" fill="#000000">last_sign_in_ip :inet</text>
<text text-anchor="start" x="232.8149" y="-35.3" font-family="Times,serif" font-size="14.00" fill="#000000">created_at :timestamp without time zone</text>
<text text-anchor="start" x="232.8149" y="-21.3" font-family="Times,serif" font-size="14.00" fill="#000000">id :bigint</text>
</g>
<!-- ApplicationRecord -->
<g id="node3" class="node">
<title>ApplicationRecord</title>
<ellipse fill="none" stroke="#000000" cx="639.4497" cy="-120.5" rx="77.2916" ry="18"/>
<text text-anchor="middle" x="639.4497" y="-116.3" font-family="Times,serif" font-size="14.00" fill="#000000">ApplicationRecord</text>
</g>
<!-- Complaint -->
<g id="node4" class="node">
<title>Complaint</title>
<path fill="none" stroke="#000000" d="M746.5874,-63.5C746.5874,-63.5 970.312,-63.5 970.312,-63.5 976.312,-63.5 982.312,-69.5 982.312,-75.5 982.312,-75.5 982.312,-165.5 982.312,-165.5 982.312,-171.5 976.312,-177.5 970.312,-177.5 970.312,-177.5 746.5874,-177.5 746.5874,-177.5 740.5874,-177.5 734.5874,-171.5 734.5874,-165.5 734.5874,-165.5 734.5874,-75.5 734.5874,-75.5 734.5874,-69.5 740.5874,-63.5 746.5874,-63.5"/>
<text text-anchor="middle" x="858.4497" y="-162.3" font-family="Times,serif" font-size="14.00" fill="#000000">Complaint</text>
<polyline fill="none" stroke="#000000" points="734.5874,-155.5 982.312,-155.5 "/>
<text text-anchor="start" x="742.5874" y="-140.3" font-family="Times,serif" font-size="14.00" fill="#000000">id :bigint</text>
<text text-anchor="start" x="742.5874" y="-126.3" font-family="Times,serif" font-size="14.00" fill="#000000">content :text</text>
<text text-anchor="start" x="742.5874" y="-112.3" font-family="Times,serif" font-size="14.00" fill="#000000">user_id :bigint</text>
<text text-anchor="start" x="742.5874" y="-98.3" font-family="Times,serif" font-size="14.00" fill="#000000">enterprise_id :bigint</text>
<text text-anchor="start" x="742.5874" y="-84.3" font-family="Times,serif" font-size="14.00" fill="#000000">created_at :timestamp without time zone</text>
<text text-anchor="start" x="742.5874" y="-70.3" font-family="Times,serif" font-size="14.00" fill="#000000">updated_at :timestamp without time zone</text>
</g>
<!-- User -->
<g id="node5" class="node">
<title>User</title>
<path fill="none" stroke="#000000" d="M1011.8149,-.5C1011.8149,-.5 1307.0845,-.5 1307.0845,-.5 1313.0845,-.5 1319.0845,-6.5 1319.0845,-12.5 1319.0845,-12.5 1319.0845,-228.5 1319.0845,-228.5 1319.0845,-234.5 1313.0845,-240.5 1307.0845,-240.5 1307.0845,-240.5 1011.8149,-240.5 1011.8149,-240.5 1005.8149,-240.5 999.8149,-234.5 999.8149,-228.5 999.8149,-228.5 999.8149,-12.5 999.8149,-12.5 999.8149,-6.5 1005.8149,-.5 1011.8149,-.5"/>
<text text-anchor="middle" x="1159.4497" y="-225.3" font-family="Times,serif" font-size="14.00" fill="#000000">User</text>
<polyline fill="none" stroke="#000000" points="999.8149,-218.5 1319.0845,-218.5 "/>
<text text-anchor="start" x="1007.8149" y="-203.3" font-family="Times,serif" font-size="14.00" fill="#000000">admin :boolean</text>
<text text-anchor="start" x="1007.8149" y="-189.3" font-family="Times,serif" font-size="14.00" fill="#000000">email :character varying</text>
<text text-anchor="start" x="1007.8149" y="-175.3" font-family="Times,serif" font-size="14.00" fill="#000000">encrypted_password :character varying</text>
<text text-anchor="start" x="1007.8149" y="-161.3" font-family="Times,serif" font-size="14.00" fill="#000000">reset_password_token :character varying</text>
<text text-anchor="start" x="1007.8149" y="-147.3" font-family="Times,serif" font-size="14.00" fill="#000000">reset_password_sent_at :timestamp without time zone</text>
<text text-anchor="start" x="1007.8149" y="-133.3" font-family="Times,serif" font-size="14.00" fill="#000000">remember_created_at :timestamp without time zone</text>
<text text-anchor="start" x="1007.8149" y="-119.3" font-family="Times,serif" font-size="14.00" fill="#000000">sign_in_count :integer</text>
<text text-anchor="start" x="1007.8149" y="-105.3" font-family="Times,serif" font-size="14.00" fill="#000000">current_sign_in_at :timestamp without time zone</text>
<text text-anchor="start" x="1007.8149" y="-91.3" font-family="Times,serif" font-size="14.00" fill="#000000">last_sign_in_at :timestamp without time zone</text>
<text text-anchor="start" x="1007.8149" y="-77.3" font-family="Times,serif" font-size="14.00" fill="#000000">current_sign_in_ip :inet</text>
<text text-anchor="start" x="1007.8149" y="-63.3" font-family="Times,serif" font-size="14.00" fill="#000000">last_sign_in_ip :inet</text>
<text text-anchor="start" x="1007.8149" y="-49.3" font-family="Times,serif" font-size="14.00" fill="#000000">created_at :timestamp without time zone</text>
<text text-anchor="start" x="1007.8149" y="-35.3" font-family="Times,serif" font-size="14.00" fill="#000000">updated_at :timestamp without time zone</text>
<text text-anchor="start" x="1007.8149" y="-21.3" font-family="Times,serif" font-size="14.00" fill="#000000">name :character varying</text>
<text text-anchor="start" x="1007.8149" y="-7.3" font-family="Times,serif" font-size="14.00" fill="#000000">id :bigint</text>
</g>
</g>
</svg>
